<svg xmlns="http://www.w3.org/2000/svg" data-name="Layer 1" viewBox="0 0 1366 768" id="phonepe"><g clip-path="url(#a)"><path fill="#5f259f" d="M332.63 514.18c-3.88-.38-7.78-.64-11.64-1.15-25.26-3.35-47.76-13.07-67.18-29.6a127.87 127.87 0 0 1-41.44-65.75 124.29 124.29 0 0 1-3.78-42.55c2-24.95 10.33-47.61 25.5-67.51 21.24-27.87 49.33-44.9 84-50.05 37.84-5.63 72 3.92 101.51 28.13 25.43 20.83 40.77 47.94 45.43 80.46 5.5 38.35-4.36 72.79-29.38 102.44-21.07 25-48.24 39.43-80.53 44.3-4.05.62-8.16.86-12.24 1.28zm-23.78-171c-10.43 0-20.85 0-31.28 0-2.78 0-3.77.84-4 3.58a35.11 35.11 0 0 0 .15 8 9.19 9.19 0 0 0 9.18 8.06c2.4.05 4.8 0 7.2 0 3 0 3 0 3 2.95q0 16.75 0 33.5a50.67 50.67 0 0 0 1.73 13.2c3.21 12 10.21 20.59 22.36 24.17 10.15 3 20.34 2.27 30.36-1 2.35-.77 2.39-.77 2.4 1.72 0 6.92-.05 13.84 0 20.76a11.07 11.07 0 0 0 11.25 11.22c3.29 0 6.59.06 9.88 0a4.2 4.2 0 0 0 4.29-4.3c0-.82 0-1.64 0-2.46q0-48.42 0-96.81c0-3.68 0-3.68 3.58-3.68 4.18 0 8.37 0 12.55 0 3.1 0 4-.95 4-4.1q0-3.07 0-6.17c-.07-5.6-3.83-9.33-9.48-9.38q-7.41-.06-14.81 0a4 4 0 0 1-3.41-1.51c-1.85-2.2-3.77-4.35-5.66-6.51Q346 315.77 329.79 297.18a13.29 13.29 0 0 0-10.6-5c-6.67.08-12.59 3-18.74 5.07-1.87.62-2.07 3-.76 4.5a20 20 0 0 0 1.46 1.45Q321.07 322.11 341 341c.48.45 1.36.88 1.14 1.57-.28.9-1.29.53-2 .53-10.43 0-20.85 "></path><path fill="#5f259f" d="M350,388.34c0,7.61-.05,15.21,0,22.81a3,3,0,0,1-2.31,3.3,36.61,36.61,0,0,1-15.21,1.84c-8.75-.83-13.64-6-14.38-14.87-.68-8.14-.18-16.29-.32-24.44-.06-4,0-7.94,0-11.91,0-1.65.54-2.32,2.27-2.31,9.19.06,18.38.08,27.56,0,2,0,2.42.81,2.41,2.58-.06,7.67,0,15.34,0,23"></path></g></svg>