<svg
          className="w-20 aspect-[1]"
            width="60"
            height="60"
            viewBox="0 0 60 60"
            fill="none"
            xmlns="http://www.w3.org/2000/svg"
          >
            <g id="shipping" clip-path="url(#clip0_57_1646)">
              <path
                id="Vector"
                d="M56.0146 31.102V3.77976C56.0146 2.80502 55.2243 2.01477 54.2496 2.01477H6.96174C5.98699 2.01477 5.19675 2.80502 5.19675 3.77976V33.2801C4.34531 33.4042 3.51295 33.7347 2.77659 34.2814C0.455278 35.9274 -0.0937517 39.6111 1.85068 41.8828L9.80055 51.5205C14.7216 57.2799 19.9491 57.9855 27.7205 57.9855C34.3894 57.9855 37.371 58.015 43.1831 56.6906L48.8426 55.337C49.7603 56.6185 51.2171 57.4486 52.8549 57.4486H55.6429C58.4129 57.4486 60.6666 55.0745 60.6666 52.1562V36.3785C60.6667 33.5921 58.6116 31.3032 56.0146 31.102ZM48.0813 34.7327L45.7296 33.5383C41.863 31.5866 37.3925 31.5143 33.4648 33.3404C32.3932 33.7619 30.056 35.176 28.8437 35.1287H20.6834C17.9766 35.1287 15.7743 37.3308 15.7743 40.0377V41.3249C15.7591 41.3089 15.7433 41.2937 15.7283 41.2774L9.90091 34.9521C9.54827 34.5693 9.15209 34.249 8.72684 33.992V16.4811H23.1707V22.9511C23.1707 23.9258 23.9609 24.7161 24.9357 24.7161H36.0729C37.0476 24.7161 37.8379 23.9258 37.8379 22.9511V16.4811H52.4847V31.1019C50.4225 31.2612 48.7029 32.7365 48.0813 34.7327ZM26.7006 16.4811H34.3078V21.1861H26.7006V16.4811ZM52.4846 12.9511H37.8379V5.54475H52.4847V12.9511H52.4846ZM34.3079 5.54475V12.9512H26.7007V5.54475H34.3079ZM23.1706 5.54475V12.9512H8.72673V5.54475H23.1706ZM42.3639 53.2569C36.9948 54.4866 33.7612 54.4368 27.7838 54.4368C20.4885 54.4368 16.9636 54.3189 12.5238 49.2741L4.57394 39.6365C3.19113 37.8358 5.69577 35.7102 7.30473 37.3436L13.1321 43.6691C14.6723 45.2942 16.6103 46.1886 18.9991 46.2412H35.1556C36.1303 46.2412 36.9206 45.4509 36.9206 44.4762C36.9206 43.5014 36.1303 42.7112 35.1556 42.7112H19.3042V40.0375C19.3042 39.2771 19.9228 38.6584 20.6832 38.6584H28.8436C30.682 38.7901 33.3355 37.255 34.9529 36.5411C37.8946 35.1734 41.2429 35.2275 44.135 36.6873L47.8314 38.5648V51.949L42.3639 53.2569ZM57.1367 52.1561C57.1367 53.1279 56.4666 53.9185 55.643 53.9185H52.855C52.0313 53.9185 51.3613 53.1279 51.3613 52.1561V36.3785C51.3613 35.4067 52.0315 34.616 52.855 34.616H55.643C56.4666 34.616 57.1367 35.4066 57.1367 36.3785V52.1561Z"
                fill="#242424"
              />
            </g>
            <defs>
              <clipPath id="clip0_57_1646">
                <rect
                  width="60"
                  height="60"
                  fill="white"
                  transform="translate(0.666687)"
                />
              </clipPath>
            </defs>
          </svg>